Punjabi Song: Google te searcha maar maar ke
singer: Kamal Heer



Format                                   : Flash Video
File size                                : 31.6 MiB
Duration                                 : 5mn 11s
Overall bit rate                         : 851 Kbps

Format                                   : AVC
Format/Info                              : Advanced Video Codec
Format profile                           : Main@L3.0
Format settings, CABAC                   : Yes
Format settings, ReFrames                : 3 frames
Format settings, GOP                     : M=1, N=30
Codec ID                                 : 7
Duration                                 : 5mn 11s
Bit rate                                 : 714 Kbps
Width                                    : 640 pixels
Height                                   : 360 pixels
Display aspect ratio                     : 16:9
Frame rate mode                          : Constant
Frame rate                               : 29.970 fps
Color space                              : YUV
Chroma subsampling                       : 4:2:0
Bit depth                                : 8 bits
Scan type                                : Progressive
Bits/(Pixel*Frame)                       : 0.103
Stream size                              : 26.5 MiB (84%)

Audio
Format                                   : AAC
Format/Info                              : Advanced Audio Codec
Format profile                           : LC
Codec ID                                 : 10
Duration                                 : 5mn 11s
Bit rate                                 : 129 Kbps
Channel(s)                               : 2 channels
Channel positions                        : Front: L R
Sampling rate                            : 44.1 KHz
Compression mode                         : Lossy
Stream size                              : 4.78 MiB (15%)





 
http://i.minus.com/ibhbpSzUymnlsS.jpg